<?xml version="1.0" standalone="no"?>
<!DOCTYPE svg PUBLIC "-//W3C//DTD SVG 20010904//EN"
 "http://www.w3.org/TR/2001/REC-SVG-20010904/DTD/svg10.dtd">
<svg version="1.0" xmlns="http://www.w3.org/2000/svg"
 width="103.000000pt" height="71.000000pt" viewBox="0 0 103.000000 71.000000"
 preserveAspectRatio="xMidYMid meet">

<g transform="translate(0.000000,71.000000) scale(0.100000,-0.100000)"
fill="#000000" stroke="none">
<path d="M471 627 c-9 -12 -9 -16 1 -20 10 -4 10 -8 -2 -16 -18 -13 -33 -14
-26 -2 3 5 -3 11 -14 14 -19 5 -20 2 -16 -34 3 -25 1 -37 -6 -33 -6 4 -26 -10
-44 -30 -26 -29 -30 -38 -19 -42 10 -4 13 -14 9 -30 -4 -15 -2 -24 5 -24 6 0
11 -9 11 -21 0 -11 5 -17 10 -14 6 3 10 -3 10 -15 0 -12 4 -19 9 -16 15 10 58
-18 53 -34 -4 -13 -3 -13 11 -2 13 11 16 10 22 -9 l7 -22 14 24 c21 39 17 66
-11 73 -13 3 -29 16 -35 27 -10 19 -10 20 9 10 11 -6 23 -11 28 -11 15 0 14
192 -1 218 -11 20 -14 21 -25 9z m24 -119 c6 -6 5 -12 -5 -18 -23 -15 -45 -7
-48 19 -3 20 -1 22 20 16 13 -4 27 -11 33 -17z m-70 -138 c3 -5 1 -10 -4 -10
-6 0 -11 5 -11 10 0 6 2 10 4 10 3 0 8 -4 11 -10z"/>
<path d="M378 563 c7 -3 16 -2 19 1 4 3 -2 6 -13 5 -11 0 -14 -3 -6 -6z"/>
<path d="M435 210 c-18 -34 -18 -40 -5 -40 6 0 16 11 22 25 6 14 15 25 20 25
5 0 4 -9 -2 -19 -13 -25 -13 -31 0 -31 6 0 16 11 22 25 6 14 15 25 19 25 5 0
4 -11 -1 -25 -13 -35 13 -34 28 0 19 41 15 45 -38 45 -45 0 -51 -3 -65 -30z"/>
<path d="M134 219 c-4 -7 2 -16 12 -22 18 -10 17 -11 -6 -18 -23 -6 -23 -7 8
-8 26 -1 32 3 32 19 0 11 -6 20 -12 21 -7 1 -2 5 12 9 24 8 24 8 -7 9 -17 1
-35 -4 -39 -10z"/>
<path d="M203 200 c-15 -39 8 -43 25 -5 15 32 15 35 -1 35 -7 0 -18 -13 -24
-30z"/>
<path d="M257 223 c-15 -14 -6 -33 16 -34 18 -1 16 -3 -8 -9 l-30 -8 36 -1
c29 -1 38 4 47 24 15 33 15 35 -3 35 -8 0 -15 -4 -15 -10 0 -5 -5 -10 -11 -10
-5 0 -7 5 -4 10 7 11 -18 14 -28 3z"/>
<path d="M371 223 c18 -4 15 -43 -3 -43 -5 0 -6 5 -3 10 10 16 -21 11 -36 -6
-11 -14 -8 -15 31 -12 38 3 45 7 51 31 7 25 5 27 -24 26 -18 -1 -25 -3 -16 -6z"/>
<path d="M567 223 c-2 -5 -3 -15 -2 -23 0 -8 -2 -17 -6 -20 -3 -3 -16 -25 -29
-49 -17 -35 -19 -45 -9 -52 7 -4 18 -4 25 2 6 5 25 6 43 3 17 -4 31 -4 31 -1
0 20 -33 76 -47 80 -10 3 1 5 25 6 l42 1 0 -45 c0 -38 3 -45 20 -45 17 0 20 7
20 45 0 44 1 45 33 45 l32 0 -25 -13 c-29 -15 -37 -48 -16 -66 21 -17 87 -10
100 12 14 22 -2 49 -35 58 -14 4 12 7 59 8 75 1 82 3 74 19 -5 9 -7 23 -5 30
3 6 0 12 -7 12 -6 0 -9 -3 -6 -8 2 -4 -2 -16 -10 -27 -14 -19 -14 -19 -12 4 2
13 -3 26 -10 28 -9 4 -11 -3 -8 -21 3 -18 0 -26 -10 -26 -8 0 -13 8 -11 21 1
12 -4 24 -10 26 -7 3 -13 0 -13 -7 0 -6 5 -8 10 -5 6 3 10 1 10 -4 0 -6 -5
-11 -11 -11 -5 0 -7 -4 -4 -10 3 -5 2 -10 -4 -10 -5 0 -14 12 -19 28 -6 15
-11 20 -11 12 -1 -8 -5 -21 -10 -29 -8 -12 -12 -11 -27 3 -14 15 -15 19 -3 27
11 7 11 9 -3 9 -13 0 -18 -8 -18 -25 0 -14 -5 -25 -11 -25 -5 0 -8 4 -5 9 4 5
0 12 -6 14 -10 4 -9 8 2 16 13 9 12 11 -4 11 -14 0 -17 -6 -14 -25 3 -14 1
-25 -3 -25 -5 0 -9 10 -9 23 0 18 -6 22 -29 23 -25 1 -31 -3 -34 -25 l-4 -26
-2 28 c-1 25 -15 37 -24 20z m83 -33 c0 -5 -7 -10 -16 -10 -8 0 -12 5 -9 10 3
6 10 10 16 10 5 0 9 -4 9 -10z m125 -70 c0 -18 -33 -26 -47 -12 -6 6 -7 15 -3
22 10 16 50 8 50 -10z"/>
<path d="M110 115 c0 -38 3 -45 20 -45 11 0 20 5 20 12 0 9 3 9 12 0 22 -22
34 -13 34 26 0 43 -9 52 -53 52 -32 0 -33 -1 -33 -45z m60 11 c0 -3 -4 -8 -10
-11 -5 -3 -10 -1 -10 4 0 6 5 11 10 11 6 0 10 -2 10 -4z"/>
<path d="M235 120 c-20 -45 -14 -61 17 -41 17 10 25 10 44 0 34 -18 40 -5 19
41 -25 55 -55 55 -80 0z"/>
<path d="M340 115 c0 -41 2 -45 24 -45 46 0 76 18 76 44 0 29 -25 46 -69 46
-30 0 -31 -1 -31 -45z m67 2 c-6 -20 -27 -19 -27 2 0 14 5 19 15 14 9 -3 14
-10 12 -16z"/>
<path d="M455 118 c8 -50 10 -52 24 -43 6 3 11 24 11 46 0 33 -3 39 -21 39
-19 0 -20 -4 -14 -42z"/>
<path d="M820 120 c0 -33 3 -40 19 -40 11 0 22 6 24 13 4 10 6 10 6 0 1 -7 9
-13 19 -13 14 0 18 9 19 40 l2 40 -45 0 -44 0 0 -40z m60 10 c0 -5 -4 -10 -10
-10 -5 0 -10 5 -10 10 0 6 5 10 10 10 6 0 10 -4 10 -10z"/>
</g>
</svg>
